<svg width="24" height="24" viewBox="0 0 24 24" fill="none" xmlns="http://www.w3.org/2000/svg">
<path d="M12 17C13.3261 17 14.5979 16.4732 15.5355 15.5355C16.4732 14.5979 17 13.3261 17 12C17.0013 11.0323 16.7159 10.0858 16.18 9.28L19.76 5.71C19.8532 5.61676 19.9272 5.50607 19.9777 5.38425C20.0281 5.26243 20.0541 5.13186 20.0541 5C20.0541 4.86814 20.0281 4.73758 19.9777 4.61575C19.9272 4.49393 19.8532 4.38324 19.76 4.29C19.6668 4.19676 19.5561 4.1228 19.4342 4.07234C19.3124 4.02188 19.1819 3.99591 19.05 3.99591C18.9181 3.99591 18.7876 4.02188 18.6658 4.07234C18.5439 4.1228 18.4332 4.19676 18.34 4.29L14.72 7.87C13.9142 7.33407 12.9677 7.04874 12 7.05C10.6826 7.06318 9.42364 7.59577 8.49674 8.53203C7.56985 9.46829 7.04993 10.7325 7.05 12.05C7.04874 13.0178 7.33406 13.9642 7.87 14.77L4.29 18.29C4.1017 18.4783 3.99591 18.7337 3.99591 19C3.99591 19.2663 4.1017 19.5217 4.29 19.71C4.4783 19.8983 4.7337 20.0041 5 20.0041C5.2663 20.0041 5.5217 19.8983 5.71 19.71L9.28 16.13C10.0802 16.6836 11.0271 16.9865 12 17ZM15.05 12C15.0624 12.5201 14.9394 13.0344 14.693 13.4925C14.4465 13.9507 14.0852 14.3369 13.6445 14.6132C13.2038 14.8896 12.6988 15.0466 12.179 15.0688C11.6593 15.091 11.1427 14.9777 10.68 14.74L14.68 10.74C14.8934 11.1282 15.0196 11.5581 15.05 12ZM9 12C8.9876 11.4799 9.11064 10.9656 9.35705 10.5075C9.60345 10.0493 9.96476 9.66312 10.4055 9.38677C10.8462 9.11043 11.3512 8.95344 11.871 8.93122C12.3907 8.90899 12.9073 9.02229 13.37 9.26L9.37 13.26C9.15664 12.8719 9.03038 12.4419 9 12ZM3.3 16C2.68493 15.4004 2.14437 14.7289 1.69 14C1.27774 13.4109 1.03872 12.718 1 12C1.01138 11.5562 1.11706 11.1199 1.31 10.72C1.51755 10.2814 1.76528 9.86293 2.05 9.47C2.75797 8.54554 3.58132 7.71547 4.5 7C6.60028 5.19949 9.23737 4.14465 12 4C12.7552 4.00253 13.5074 4.09654 14.24 4.28C14.3718 4.30724 14.4967 4.36081 14.6073 4.43748C14.7179 4.51416 14.8119 4.61237 14.8837 4.72624C14.9554 4.84011 15.0034 4.96728 15.0248 5.10015C15.0463 5.23302 15.0406 5.36884 15.0083 5.49948C14.976 5.63013 14.9176 5.7529 14.8367 5.86045C14.7558 5.968 14.6541 6.05811 14.5375 6.12539C14.4209 6.19267 14.292 6.23572 14.1584 6.25198C14.0248 6.26824 13.8893 6.25736 13.76 6.22C13.1839 6.07859 12.5932 6.00476 12 6C10.4989 6.04681 9.03247 6.46236 7.73 7.21C6.45659 7.91036 5.30226 8.80817 4.31 9.87C3.8406 10.3629 3.44636 10.9222 3.14 11.53C3.06869 11.6782 3.02143 11.8369 3 12C3.05785 12.3386 3.19114 12.6599 3.39 12.94C3.76294 13.5225 4.20258 14.0594 4.7 14.54C4.89361 14.7257 5.00554 14.9806 5.01116 15.2488C5.01679 15.517 4.91565 15.7764 4.73 15.97C4.54435 16.1636 4.28939 16.2755 4.02121 16.2812C3.75304 16.2868 3.49361 16.1857 3.3 16ZM23 12C22.9886 12.4438 22.8829 12.8802 22.69 13.28C22.4984 13.7167 22.2674 14.1351 22 14.53C21.2766 15.4576 20.4363 16.2878 19.5 17C17.3997 18.8005 14.7626 19.8554 12 20C11.2448 19.9975 10.4926 19.9035 9.76 19.72C9.51165 19.6482 9.30074 19.4831 9.17151 19.2592C9.04228 19.0353 9.00478 18.7701 9.06687 18.5191C9.12896 18.2682 9.28581 18.051 9.50453 17.9132C9.72325 17.7754 9.98684 17.7277 10.24 17.78C10.8161 17.9214 11.4068 17.9952 12 18C13.5011 17.9532 14.9675 17.5376 16.27 16.79C17.5434 16.0896 18.6977 15.1918 19.69 14.13C20.1594 13.6371 20.5536 13.0778 20.86 12.47C20.9313 12.3218 20.9786 12.1631 21 12C20.966 11.682 20.8563 11.3768 20.68 11.11C20.36 10.5684 19.9624 10.0765 19.5 9.65C19.307 9.46933 19.1933 9.21956 19.184 8.95532C19.1746 8.69109 19.2702 8.43389 19.45 8.24C19.6307 8.04696 19.8804 7.93332 20.1447 7.92395C20.4089 7.91458 20.6661 8.01024 20.86 8.19C21.4719 8.75326 21.9976 9.40357 22.42 10.12C22.7631 10.6903 22.9621 11.3355 23 12Z" fill="#222221"/>
</svg>
